<svg version="1" xmlns="http://www.w3.org/2000/svg" width="200" height="200" viewBox="0 0 150.000000 150.000000"><path d="M70.5 8.7c-13.4 1.2-34.4 9.9-33.7 14 1 5.5.6 16.7-.6 17.1-.6.2-1 .9-.6 1.5.3.7-.2.3-1-.7-.9-1.1-1.6-3.4-1.6-5.1 0-3.9-1.9-9.5-3.2-9.5-.5 0-.6 1-.2 2.2.4 1.2 1 4.8 1.4 8 .8 7-.4 7.5-4.9 2.1-2.6-3.2-3.2-3.5-4.7-2.3-1.4 1.2-1.8 1.2-2.9-.3-.7-.9-1.6-1.7-2.2-1.7C15 34 10 23.4 10 20.4c0-1.4.5-3.4 1-4.5 1.1-2-.3-2.8-1.5-.8-2.2 3.5.3 12.8 5.1 19.5l2.3 3.2-2.7 1.1c-1.5.6-3.5.9-4.4.8-.9-.1-1.7.2-1.7.8-.1.5.5 1 1.3 1 2 0 4.7 2.6 4 3.7-.4.6.3.8 1.7.3 1.3-.3 1.9-.3 1.3.2-.7.4-1.9 2.5-2.7 4.5-1.3 3-2.1 3.8-4.1 3.8-1.5 0-2.6.5-2.6 1.1 0 .7 1 .9 2.6.5 2.3-.6 2.6-.4 2 1.1-3.1 7.9-3.4 23.9-.6 34.7 4.9 19.2 17.2 34.7 34.2 43 20.3 9.9 39.6 10 59.3.2 18.4-9.2 30.4-24.3 35.1-44.4 2-8.6 1.5-27.4-1.1-34.7-8.3-23.9-25.1-39.6-48-44.8-7.3-1.7-14.9-2.4-20-2zM85 12c0 .5-1.3 1-3 1-1.6 0-3 .4-3 1 0 .5 1.1 1 2.5 1s2.5.6 2.5 1.3c0 .7-1.1 1.3-2.7 1.2-1.4 0-2.8.6-3 1.2-.3.9.6 1.3 2.6 1.3 1.6 0 3.3.4 3.6 1 .4.6-1.2 1-3.9 1-4.5 0-4.6-.1-4.6-3.3 0-6.4.9-7.7 5.1-7.7 2.2 0 3.9.4 3.9 1zm6.4 5.2c-1.5 4.3-.9 5.7 2.4 5.8.6 0 1.2.5 1.2 1 0 1.1-4.9.3-6.4-1.1-1.3-1.1 1.4-9.9 3-9.9 1.1 0 1 .8-.2 4.2zm-19.8-2.1c.4.7-.2.9-1.7.7-1.8-.2-2.4.2-2.4 1.7s.6 1.9 2.3 1.7c1.5-.1 2.2.2 2 1-.6 1.8-3.6 2.2-5.3.8-1.5-1.3-2-5.1-.8-6.3 1-1.1 5.1-.8 5.9.4zm-10.3 4.1c1.3 3.1 1.2 3.3-1.2 4.6-4.7 2.4-7.1-1-2.8-4.2l2.2-1.7-2.9.6c-2.6.6-2.8.4-1.7-.9 2.2-2.6 5-1.9 6.4 1.6zm45-1c1.5.7 2.7 1.9 2.7 2.7 0 1.1-.5 1-2.4-.3-3-1.9-4.8-.2-2 1.9 1.1.7 1.6 1.7 1.1 2.1-.4.4-1.3.2-1.9-.4-1-1-1.6-.8-3 1-2.7 3.6-3.1 1.5-.6-3.6s2.4-5.1 6.1-3.4zm-56.5 2.5c.2 1.4-.4 2.7-1.7 3.4-1.5 1-1.7 1.7-1 3 .5 1.1.5 2 0 2.3-.5.3-2.1-1.5-3.6-4.1-2.7-4.5-2.7-4.7-.9-6 2.8-2.1 6.8-1.3 7.2 1.4zM84.3 26c20.7 3.3 37.7 21.1 40.6 42.3 1.8 13.1-1.9 26.4-10.4 37.2-4.8 6.1-14.4 13.6-19.2 15-4 1.1-2.5-.3 3-2.8 4.9-2.4 12.7-8.5 12.7-9.9 0-.8-6.7-.1-8.1.8-.5.3-.9.2-.9-.3 0-1.4-7.9-1.1-8.4.3-1 2.5-3.5 1.4-4.6-1.9l-1-3.2.5 3.2c.3 2.5-.1 3.8-1.7 5.3-1.2 1.1-2.5 2-3 2-.4 0-1.5 1.1-2.4 2.5-1.5 2.3-1.5 2.5 1.3 5 2 1.9 2.2 2.3.7 1.6-5.3-2.6-5.2-6.8.3-10.2 2.8-1.8 3.4-2.7 3.3-5.3-.3-4.8-.1-5.7 1.3-5.5 3.1.4 6.7-1.9 6.7-4.2 0-.6-.7-.4-1.5.5-.9.8-2.1 1.3-2.9 1-.7-.3-2.5 0-4.1.6-2.4.9-2.7 1.5-2.3 4.3.7 4.3.2 5.3-3.8 7.7-2.1 1.4-3.4 3-3.4 4.2 0 4.4-1.3.6-1.4-4.1-.1-3.6.2-4.7 1.1-4.4.8.3 1.1 1.4.6 3.1l-.6 2.6 2.7-2.1c3.5-2.8 3.4-3.7-.6-4.3-3.2-.5-3.3-.7-3.8-5.8-.3-3-.2-5.6.2-5.8.5-.3.6-.9.3-1.4-.5-.8-1-4.2-2-13.5-.4-3.3-.9-7-1.2-8.3-.8-3.2-2.6-2.7-1.9.5.3 1.6 0 3.8-.7 5.1l-1.3 2.3-1.2-2.5c-.6-1.5-1.8-2.6-2.7-2.6-1 0-1.5-1-1.5-3 0-3.4-1.7-4.5-5.5-3.6-2 .5-2.5 1.3-2.5 3.6 0 1.6.5 3.2 1.1 3.5.7.5.6 1.2-.4 2.3-.8 1-2.4 3.6-3.6 5.9-1.2 2.4-3.2 5-4.6 5.9-2.7 1.8-3.3 3.4-1.1 3.4.7 0 3-1.9 5.1-4.1 2.8-3.1 3.9-3.8 4.6-2.8.4.7.4 1.8 0 2.4-.4.5-2.4 3.1-4.5 5.7l-3.7 4.6 1.7 5.3c1.7 5 1.7 5.2-.1 6.5-4.3 3.2-6.9.6-9.6-9.6-1.1-4.2-1-5 1.8-11.6 1.6-3.9 4.7-9.6 6.7-12.7C53.2 69.6 65.7 56 67.6 56c.8 0 1.4-.5 1.4-1.1 0-1.6 2.8-4 3.4-3 .4.5 0 1.1-.6 1.4-.7.2-1 .8-.6 1.2.5.5 1.7 0 2.8-1 2-1.8 2-1.7 2 .8 0 2 .4 2.4 2 2 1.4-.4 2 0 2 1.1 0 .9.8 1.6 1.8 1.6 1.6.1 1.6.1 0 1.4-1.2.9-1.4 1.6-.7 2.3.8.8.6 1.3-.7 1.7-1.1.3-2.4 1.7-3 3.1l-1.2 2.4 3.2-2.3c1.8-1.4 5.1-2.6 7.9-2.9 2.6-.2 5-.7 5.3-1 .4-.3-1.7-3.4-4.4-6.8-3-3.7-4.8-6.8-4.5-7.7.5-1.1 1-1 2.4.9 1.5 2 1.9 2.1 3.4.9 1.4-1.1 1.8-1.1 2.5 0 .5.7 1.5 1 2.5.6 1.5-.5 1.6-.4.5.9-1 1.2-1 1.5.3 1.5 1 0 1.4.6 1.1 1.5-.4.8-.4 1.5-.1 1.5.7 0 8.7-11.3 8.3-11.7-.2-.2-3.8-.8-8-1.2-4.3-.5-7.9-1.1-8.1-1.3-.2-.2-.5-3-.8-6.3-.3-5.6-.5-6-2.8-5.9-1.3.1-7.3.5-13.4 1-10.4.8-10.6.9-5 1.4 4.4.4 5.9.9 5.7 1.9-.2.9.4 1.2 1.8.8 1.6-.4 2-.2 1.6.9-.4.9.2 1.4 1.6 1.4 1.8 0 1.9.2.7 1.7-.8.9-1.3 2.4-1.1 3.5.4 2.4-2 2.3-4.4-.3-2.4-2.7-7.8-4.9-12-4.9-2.5 0-4.8 1.2-9.4 5.1-6.1 5-7.6 7.7-2.6 4.4 1.4-1 3.2-1.5 4-1.2.8.3 1.7-.2 2.1-1 .5-1.5.8-1.4 2.7.4 1.9 2 2.3 2 4.4.6 2.2-1.4 2.4-1.4 2.4.2 0 1.1.5 1.5 1.9 1 2-.6 3.4 1.5 2.5 3.7-.2.7-3.4 3.3-7 5.6-13 8.7-25.2 19.9-31.8 29.3-.8 1.3-1.8 2-2.1 1.7-.3-.3-1.1-3.6-1.7-7.2-.9-5.5-.8-8.2.6-15.4 1.8-9 2.5-10.2 6.4-10.2 1.9 0 2.1.3 1.3 1.9-.6 1-.8 2-.6 2.3.3.2-.4 2.4-1.6 4.7-2.6 5.5-1.9 6.3 1 1.1 1.2-2.2 2.6-4 3-4 1.7 0 1.9 1.3.5 4.7-.8 1.9-1.1 3.2-.5 2.9 1.5-1 3.1-6.5 2-7.1-1.5-1-1-2.8.6-2.1 1 .4 2.1-.7 3.5-3.4 2.2-4.3 2.6-7 1-7-.5 0-1-.5-1-1.2 0-.6-1-2.3-2.2-3.6l-2.3-2.4 4.5-3.9c2.5-2.2 7.7-5.5 11.5-7.5 10.4-5.1 19-6.4 30.8-4.4zm26.1 6.1c-.3.5-1 .7-1.5.3-.5-.3-.7-1-.3-1.5.3-.5 1-.7 1.5-.3.5.3.7 1 .3 1.5zm7.5 2.3c.9 1 .8 1.6-.4 2.6-2 1.6-3.8.1-2.9-2.3.8-2.1 1.8-2.2 3.3-.3zm2.1 4.1c-.7.8-1.7 1.5-2.2 1.5-.6 0-.5-.7.2-1.5s1.7-1.5 2.2-1.5c.6 0 .5.7-.2 1.5zm2.6 4.4c-2.2 2.1-4.6 0-2.6-2.4 1-1.2 1.6-1.3 2.7-.3 1.2 1 1.2 1.3-.1 2.7zm3.7 3.2c.7 0 .3.4-.8.8-2.8 1.2-3.7.3-2.3-2.2 1.1-1.9 1.3-2 1.6-.5.2 1 .9 1.8 1.5 1.9zm1.2 2.9c-.3.5-1.4 1-2.3 1-1.5 0-1.5-.2-.2-1 2-1.3 3.3-1.3 2.5 0zm-94.9 3.5c1.4 1.3 1.3 1.5-.5 1.5-1.2 0-2.1-.6-2.1-1.5 0-.8.3-1.5.6-1.5s1.2.7 2 1.5zm96.7-.1c.7 1.6-.1 2.6-2 2.6-.7 0-1.3-.9-1.3-2 0-2.3 2.5-2.7 3.3-.6zm3.7 10.2c0 .8-.9 1.4-2.2 1.3-1.7-.1-1.9-.2-.5-.6 2.3-.6 2.2-3.4-.3-4-2.3-.6-2.5-1.4-.8-3.1.9-.9 1.5-.5 2.5 1.9.7 1.7 1.3 3.8 1.3 4.5zM23 60.1c0 .5-.4.9-1 .9-.5 0-1-.7-1-1.6 0-.8.5-1.2 1-.9.6.3 1 1 1 1.6zm-1.5 7.3c0 2.9-1.8 2.9-3.2 0-1.1-2.3-1-2.5 1-2.2 1.4.2 2.2 1 2.2 2.2zm112-1.4c-.3.5-1.4 1-2.3 1-1.5 0-1.5-.2-.2-1 2-1.3 3.3-1.3 2.5 0zm-1.7 3.9c2.8 2.4 2.8 3.3 0 2.9-1.5-.2-2.4-1.1-2.6-2.6-.4-2.7-.1-2.7 2.6-.3zM19.6 71.1c.3.6 0 1.5-.7 2-2.2 1.4-2.8 1.1-2.2-1.1.6-2.2 1.8-2.6 2.9-.9zm1 5c.3.6.1 1.6-.5 2.2-.8.8-1.1.6-1.2-.9 0-1.9-.1-1.9-.8 0-.5 1.4-1 1.6-1.5.8-.4-.7-.4-1.7-.1-2.2.8-1.3 3.2-1.3 4.1.1zM131.5 78c-.3.5-.2 1 .4 1 .5 0 1.2-.6 1.5-1.3.3-.6.5-.3.3.8-.3 2.5-3 2.7-3.5.2-.2-.9.2-1.7.8-1.7.6 0 .8.4.5 1zm-58.9 23.7c0 6.8.2 12.3.7 12.3.4 0 .7.4.7 1 0 .5-2-.2-4.5-1.6-2.5-1.3-4.5-2.2-4.5-1.9 0 .3-.9.1-2-.5-2.6-1.4-2.6-5.2.1-7.6 3.6-3.2 4.1-5 2.4-9-1.9-4.5-2.1-13.4-.3-11.6 2 2 3.5 1.4 4.9-2.1l1.4-3.2.6 6c.4 3.3.6 11.5.5 18.2zM20 81c-1.9 1.3-3 1.3-3 0 0-.6 1-1 2.3-1 1.8 0 1.9.2.7 1zm113.3 1.7c-.7.2-1.9.2-2.5 0-.7-.3-.2-.5 1.2-.5s1.9.2 1.3.5zM21.4 84.5c.3.9 0 1.5-.8 1.5-.7 0-1.9-.7-2.6-1.5-1-1.2-.9-1.5.8-1.5 1.1 0 2.2.7 2.6 1.5zm110.4 1.4c1 .6.9 1-.7 1.4-1.4.3-2.1 0-2.1-.9 0-1.6.9-1.8 2.8-.5zM22 88c0 .5-1 1-2.2.9-2.2 0-2.2-.1-.3-.9 1.1-.5 2.1-.9 2.3-.9.1-.1.2.3.2.9zm109.4 3.3c-.3.9-1.2 1.3-2 1-1.9-.7-1.8-2.1.4-2.5 2.2-.5 2.4-.4 1.6 1.5zM22.6 92.4c.2 1.3.1 1.3-.3.1-.2-.8-.8-1.3-1.3-1-.5.3-.6 1.3-.3 2.3.5 1.3.3 1.5-.7.5-1.5-1.4-.5-4.6 1.3-4.1.6.3 1.3 1.2 1.3 2.2zM130 96c-.7.4-1 1.2-.6 1.8.3.6-.2.8-1.3.5-1.5-.4-1.8 0-1.4 2.1.4 2.1.2 2.5-1.1 2-.9-.3-1.6-.8-1.6-1 0-1.1 2.5-5.4 3.1-5.4.5 0 .6-.7.2-1.6-.5-1.4-.3-1.5 1.7-.4 1.6.9 1.9 1.4 1 2zm-68.1.7c.7 1.3.1 2.8-2.2 6.3l-3.2 4.5-.3-3.7c-.2-2.5.3-4.6 1.5-6.3 2.1-2.9 2.9-3.1 4.2-.8zm-34.4 4.7c.7 2 2 4.5 2.8 5.4 1.6 1.9 1.2 4.2-.8 4.2-2.1 0-2.8-1.9-1.5-3.5 1-1.2 1-1.5.1-1.5-1.8 0-4.6-3-2.9-3 .7-.1.2-1-1.1-2.1-2.1-1.7-2.2-2.2-1-3 2.1-1.3 3-.7 4.4 3.5zm96.9 2.2c.9.3 1.6 1 1.6 1.6 0 .5-.4.6-1 .3s-1 .4-1 1.7c0 2-.2 2.1-1.5.7-.9-.9-1.3-2.3-.9-3.2.7-1.9.7-1.9 2.8-1.1zm-3.1 5.8c.4 1 0 1.4-1.4 1.3-2-.1-2.4-.9-1.2-2 1-1.1 2-.8 2.6.7zm-87 4.2c-.7 1.8-1.7 1.8-3.2.1-.8-1-.7-1.7.1-2.5 1.5-1.5 3.9.3 3.1 2.4zm82-.4c.3 1 .7 1 2-.1 1-.7 1.7-.9 1.7-.3 0 2-2.4 3.1-4.3 1.8-1.9-1.4-2.2-2.6-.8-2.6.5 0 1.1.6 1.4 1.2zm-78 2.2c.8 2.1-1.5 3.7-3 2.1-.8-.9-.9-1.5 0-2.4 1.5-1.5 2.4-1.4 3 .3zm75.1 3.8c.6.4.4.9-.7 1.4-2.7 1-4.4-1.1-2.6-3.2 1-1.3 1.4-1.3 1.8-.3.2.8.9 1.7 1.5 2.1zM42 120c0 1.1-.4 2-1 2-.5 0-1-.5-1-1.1 0-.5-.4-.7-1-.4-.5.3-1 .2-1-.4 0-.9 1.5-1.8 3.3-2 .4-.1.7.8.7 1.9zm66.9 3.3c.1.4-.8.2-1.8-.5-1.6-1-1.7-1.5-.8-2.6.9-1.2 1.2-1.1 1.8.5.4 1 .8 2.1.8 2.6zM46.6 122c1.2 0 1.3.4.3 2.2-1 1.9-1.2 2-2.1.4-.5-.9-1.4-1.4-2-1-.5.4-.4-.4.3-1.7.7-1.5 1.4-1.9 1.7-1.1.2.6 1 1.2 1.8 1.2zm59.4 3.3c0 .4-.4.6-.9.2-.5-.3-1.3 0-1.7.7-.5.8-1 .6-1.4-.8-.4-1-.6-2.2-.3-2.6.5-.9 4.3 1.3 4.3 2.5zm-54.3-.3c.8 0 1.3.6 1 1.2-.2.7-1.3 1.1-2.3 1-2.6-.5-2.8-.8-1.9-2.9.5-1.2.9-1.4 1.2-.6.3.7 1.1 1.3 2 1.3zm49.3 2.4c0 .4-.7.6-1.5.2-.8-.3-1.5-.1-1.5.5s-.4.7-1 .4c-1.5-.9-1.2-2.5.5-2.5.8 0 1.5-.6 1.5-1.3 0-1.4 2 1.2 2 2.7zm-43.5-.4c.3.5.2 1-.4 1-.6 0-.8.7-.4 1.6.5 1.4.3 1.5-1.5.5-1.3-.7-1.9-1.7-1.6-2.6.7-1.7 3-2 3.9-.5zm35.5 3.4c0 .5-.3.6-.6.3-.4-.3-1.5-.2-2.5.4-1.6.8-1.9.6-1.9-1.1 0-1.2.4-1.9.9-1.5.5.3 1.3 0 1.7-.6.7-1.1 2.4.6 2.4 2.5zm2.4-1.9c.3.8.1 1.5-.4 1.5-.6 0-1-.7-1-1.5s.2-1.5.4-1.5.6.7 1 1.5zm-31.1.1c.7.8-.3 3.4-1.3 3.4-.4 0-1-.9-1.3-2-.5-1.9 1.2-2.8 2.6-1.4zm5.6 1.7c1.3 1.6.5 2.7-2.1 2.7-1.8 0-2.5-2-1.1-3.3 1-1 1.9-.8 3.2.6zm8.1-.2c-1.1.8-1.2 1.2-.2 1.6 2.1.8 1.3 2.5-1 2.1-1.5-.2-2.4-1.1-2.6-2.6-.3-1.8.1-2.2 2.5-2.2 2.2 0 2.5.2 1.3 1.1zm9 2.2c0 .5-.4.5-1 .2-.5-.3-1-1.4-1-2.3 0-1.5.2-1.5 1-.2.5.8 1 1.9 1 2.3zm-4.4-.8c1.4 1.3 1.3 1.5-.5 1.5-1.2 0-2.1-.6-2.1-1.5 0-.8.3-1.5.6-1.5s1.2.7 2 1.5z"/><path d="M57 22c0 .5.4 1 .9 1 .6 0 1.3-.5 1.6-1 .3-.6-.1-1-.9-1-.9 0-1.6.4-1.6 1zM44 21.3c0 2.1 1.2 2.8 2.7 1.6 1.9-1.6 1.6-2.9-.7-2.9-1.1 0-2 .6-2 1.3zM66 50c0 .5.5 1 1 1 .6 0 1-.5 1-1 0-.6-.4-1-1-1-.5 0-1 .4-1 1zM98 59.5c-1.4.8-2.2 1.4-1.7 1.5.4 0-.1 1.2-1 2.7l-1.8 2.8 3.7-3c2.1-1.7 3.8-3.6 3.8-4.3 0-1.5.1-1.5-3 .3zM112.6 68.2c-.8 3.3-.7 4.8.4 4.8.6 0 1-.9 1-1.9 0-1.1.5-2.3 1-2.6 1.5-.9 1.2-2.5-.4-2.5-.7 0-1.6 1-2 2.2zM116 69.9c0 .6.4 1.3 1 1.6.6.3.7-.1.4-.9-.7-1.8-1.4-2.1-1.4-.7zM119.4 77.7c-3.2.6-5.6 3.8-6.3 8.1-.7 3.6-.8 3.7-4.8 3.4-3.7-.2-4.3.1-6.2 3.2-1.2 1.8-3.1 3.6-4.3 3.9-1.2.4-1.9.9-1.6 1.2 1.3 1.4 6-.9 7.4-3.7 1.1-2.2 2-2.8 3.2-2.3 3.9 1.6 5.1 1.6 7.1-.4 1.3-1.3 2.1-3.4 2.1-5.4 0-3.7 1.5-5.7 4.2-5.7 1 0 1.8-.7 1.8-1.5s-.1-1.4-.2-1.4c-.2.1-1.3.4-2.4.6zM77 94.1c0 .5.5.7 1 .4 1.6-1 1.2.7-.7 2.7-.9 1-1.2 1.8-.6 1.8.5 0 1.7-.8 2.6-1.8 1.3-1.4 1.4-2.1.5-3-1.5-1.5-2.8-1.5-2.8-.1zM82 96.9c0 .5-.3 1.7-.7 2.7-.4 1.1-.3 1.5.4 1.1 1.4-.9 2.4-4.7 1.2-4.7-.5 0-.9.4-.9.9zM105.3 96.7c-1.3.2-2.3.9-2.3 1.4 0 .5-.8.9-1.7.9-1.5 0-1.3.4.7 2 3.2 2.5 4.8 2.6 2.5 0-1.7-1.9-1.7-2 .9-2.9 1.4-.6 2.6-1.3 2.6-1.6 0-.3-.1-.4-.2-.4-.2.1-1.3.4-2.5.6zM97 101.8c0 .5.6 1.7 1.4 2.8 1.9 2.5 3.1 1.2 1.4-1.5-1.3-2.1-2.8-2.8-2.8-1.3zM92.5 103.5c-.3.8-.7 2.2-1 3-.8 2.6 1.5 1.6 2.5-1.1 1.2-3.2 1.2-3.4 0-3.4-.6 0-1.3.7-1.5 1.5zM111.5 106c.3.5.8 1 1.1 1 .2 0 .4-.5.4-1 0-.6-.5-1-1.1-1-.5 0-.7.4-.4 1zM46.2 107.7c-1.3.3-2.1 1-1.9 1.6.6 2 3.1 1.8 4.5-.3.7-1.1.9-1.9.5-1.9-.5.1-1.8.4-3.1.6zM63.4 108.2c-.7 1.2-.8 1.1 4.4 3.1L72 113v-2.9c0-2.8-.2-3-4-2.9-2.2 0-4.3.5-4.6 1zM67.5 131c-.3.5-.1 1 .4 1 .6 0 1.1-.5 1.1-1 0-.6-.2-1-.4-1-.3 0-.8.4-1.1 1zM15.4 16.5c-.8 1.3-1.4 3.2-1.1 4.2.3 1.3.7.8 1.2-1.5.5-2.2 1.3-3.2 2.6-3.2 1.1 0 1.9-.5 1.9-1 0-1.9-3-1-4.6 1.5zM33.6 26.3c.3 1 .9 1.5 1.2 1.2.3-.3 0-1.1-.7-1.8-1-.9-1.1-.8-.5.6zM20 29.9c0 .5.5 1.3 1 1.6.6.3 1 .2 1-.4 0-.5-.4-1.3-1-1.6-.5-.3-1-.2-1 .4zM28 35.9c0 .6.4 1.3 1 1.6.6.3.7-.1.4-.9-.7-1.8-1.4-2.1-1.4-.7zM8 43.9c0 1 3.6 2.1 4.4 1.4.3-.3.3-1 0-1.4-.7-1.2-4.4-1.2-4.4 0z"/></svg>